<svg id="Camada_1" data-name="Camada 1" xmlns="http://www.w3.org/2000/svg" viewBox="0 0 1714.82 437.28"><defs><style>.cls-1{fill:#087f9c;}</style></defs><rect class="cls-1" x="208.45" y="184.97" width="20.39" height="67.35"/><rect class="cls-1" x="184.97" y="208.44" width="67.35" height="20.39"/><polygon class="cls-1" points="296.83 140.45 296.83 0 183.72 0 183.72 163.32 253.57 163.32 253.57 142.92 206.58 142.92 206.58 22.87 273.97 22.87 273.97 140.45 273.97 163.32 437.28 163.32 437.28 140.45 296.83 140.45"/><polygon class="cls-1" points="140.46 296.83 140.46 437.28 253.57 437.28 253.57 273.96 183.72 273.96 183.72 294.36 230.71 294.36 230.71 414.41 163.32 414.41 163.32 296.83 163.32 273.96 0 273.96 0 296.83 140.46 296.83"/><polygon class="cls-1" points="140.46 140.45 0 140.45 0 253.57 163.32 253.57 163.32 183.71 142.93 183.71 142.93 230.7 22.87 230.7 22.87 163.32 140.46 163.32 163.32 163.32 163.32 0 140.46 0 140.46 140.45"/><polygon class="cls-1" points="296.83 296.83 437.28 296.83 437.28 183.71 273.97 183.71 273.97 253.57 294.36 253.57 294.36 206.58 414.42 206.58 414.42 273.96 296.83 273.96 273.97 273.96 273.97 437.28 296.83 437.28 296.83 296.83"/><path class="cls-1" d="M697.62,311.45c.71.9.89,1.61.54,2.15a2.13,2.13,0,0,1-1.88.8H662a7.6,7.6,0,0,1-6.17-3l-7-8.31a76.49,76.49,0,0,1-21.32,9.38,90.46,90.46,0,0,1-23.21,3A93.11,93.11,0,0,1,567,308a96.79,96.79,0,0,1,74.57-178.64A95.69,95.69,0,0,1,700,218.64a93,93,0,0,1-6.84,35.68,96.21,96.21,0,0,1-18.92,29.5Zm-93.35-26a39.12,39.12,0,0,0,23.88-7l-21.46-25.21c-1.61-1.78-1.44-3.48.53-5.09L626,232.32a3.44,3.44,0,0,1,4.85,0,3.33,3.33,0,0,1,.25.28l23.29,27.63A58.62,58.62,0,0,0,665,241.31a61,61,0,0,0,3.12-22.67q-.54-16.09-5.36-27.76a63.35,63.35,0,0,0-13.36-20.39,63.83,63.83,0,0,0-104,20.39q-5,11.67-5,27.76t5,27.76a62.38,62.38,0,0,0,13.68,20.24,63.7,63.7,0,0,0,20.26,13.41,71.26,71.26,0,0,0,24.94,5.38Z" transform="translate(0 0)"/><path class="cls-1" d="M763.07,122.88c2.32,0,3.49,1.16,3.49,3.48V261.29A23.81,23.81,0,0,0,790,285.43h.66a23,23,0,0,0,16.9-7,23.31,23.31,0,0,0,7-17.17V126.36q0-3.48,3.76-3.48h24.41q3.75,0,3.75,3.48v133a54,54,0,0,1-4.42,21.73,58.37,58.37,0,0,1-11.94,17.84,55.39,55.39,0,0,1-61.23,12.12A56.81,56.81,0,0,1,739,281.14a54,54,0,0,1-4.42-21.73v-133a3.17,3.17,0,0,1,1.2-2.41,3.87,3.87,0,0,1,2.55-1.07Z" transform="translate(0 0)"/><path class="cls-1" d="M914.89,314.4H890.22a3.44,3.44,0,0,1-2.69-1.21,3.82,3.82,0,0,1-1.07-2.54v-133a53.79,53.79,0,0,1,4.43-21.73A55.62,55.62,0,0,1,903,138.21a58.21,58.21,0,0,1,17.83-11.94,55.78,55.78,0,0,1,73.1,29.64,54.12,54.12,0,0,1,4.43,21.73v133a3.74,3.74,0,0,1-1.08,2.54,3.42,3.42,0,0,1-2.68,1.21H969.88a3.16,3.16,0,0,1-2.41-1.21,3.74,3.74,0,0,1-1.08-2.54v-62h-48v62a3.82,3.82,0,0,1-1.07,2.54A3.18,3.18,0,0,1,914.89,314.4Zm51.5-95.76V175.72a23.81,23.81,0,0,0-23.75-23.87h-.13a23.29,23.29,0,0,0-17.16,7,23,23,0,0,0-7,16.9v42.89Z" transform="translate(0 0)"/><path class="cls-1" d="M1043.11,122.88h24.68a3.17,3.17,0,0,1,2.41,1.2,3.88,3.88,0,0,1,1.08,2.55V284.36h44.26q3.75,0,3.75,3.75v22.81q0,3.48-3.75,3.48h-72.43a3.75,3.75,0,0,1-2.55-1.07,3.21,3.21,0,0,1-1.21-2.41V126.64a4.18,4.18,0,0,1,3.76-3.75Z" transform="translate(0 0)"/><path class="cls-1" d="M1152,314.4c-2.51,0-3.75-1.16-3.75-3.48V126.64c0-2.32,1.24-3.48,3.75-3.48h24.38c2.5,0,3.76,1.16,3.76,3.48V310.92c0,2.32-1.26,3.48-3.76,3.48Z" transform="translate(0 0)"/><path class="cls-1" d="M1309.47,126.36a4.4,4.4,0,0,1,4.56-3.48h25a2.93,2.93,0,0,1,2.27,1.07,2.19,2.19,0,0,1,.41,2.41l-48.82,184.28q-1.08,3.75-4.56,3.75h-28.44a4.22,4.22,0,0,1-2.68-1.07,5.65,5.65,0,0,1-1.88-2.68l-48.82-184.29a2.17,2.17,0,0,1,.41-2.41,3.23,3.23,0,0,1,2.54-1.07h24.68a4.4,4.4,0,0,1,4.56,3.48l35.41,147Z" transform="translate(0 0)"/><path class="cls-1" d="M1371.7,314.4q-3.77,0-3.76-3.48V126.64q0-3.48,3.76-3.48h24.41q3.75,0,3.75,3.48V310.92q0,3.48-3.75,3.48Z" transform="translate(0 0)"/><path class="cls-1" d="M1474.17,122.88a93.11,93.11,0,0,1,37.28,7.51,95.84,95.84,0,0,1,0,176.58,93.11,93.11,0,0,1-37.28,7.51H1446a3.42,3.42,0,0,1-2.68-1.21,3.74,3.74,0,0,1-1.08-2.54V126.64q0-3.75,3.76-3.75Zm0,161.48a61.21,61.21,0,0,0,24.81-5.1,66.53,66.53,0,0,0,20.41-13.68,62.32,62.32,0,0,0,13.68-20.25,74.12,74.12,0,0,0,0-53.38,63.81,63.81,0,0,0-58.87-39.07Z" transform="translate(0 0)"/><path class="cls-1" d="M1631.39,314.4h-24.68a3.42,3.42,0,0,1-2.68-1.21,3.82,3.82,0,0,1-1.07-2.54v-133a53.79,53.79,0,0,1,4.43-21.73,55.62,55.62,0,0,1,12.07-17.7,58.21,58.21,0,0,1,17.83-11.94,55.8,55.8,0,0,1,73.1,29.6,54.12,54.12,0,0,1,4.43,21.73v133a3.83,3.83,0,0,1-1.08,2.54,3.42,3.42,0,0,1-2.68,1.21h-24.67a3.16,3.16,0,0,1-2.41-1.21,3.79,3.79,0,0,1-1.08-2.54v-62h-48v62a3.82,3.82,0,0,1-1.07,2.54A3.18,3.18,0,0,1,1631.39,314.4Zm51.5-95.76V175.72a23.81,23.81,0,0,0-23.73-23.87H1659a23.31,23.31,0,0,0-17.17,7,23,23,0,0,0-7,16.9v42.89Z" transform="translate(0 0)"/></svg>