<svg id="Camada_1" data-name="Camada 1" xmlns="http://www.w3.org/2000/svg" viewBox="0 0 899.39 848.52"><defs><style>.cls-1{fill:#087f9c;}</style></defs><rect class="cls-1" x="434.77" y="270.8" width="29.86" height="98.6"/><rect class="cls-1" x="400.39" y="305.17" width="98.6" height="29.86"/><polygon class="cls-1" points="564.16 205.63 564.16 0 398.56 0 398.56 239.1 500.83 239.1 500.83 209.25 432.03 209.25 432.03 33.48 530.69 33.48 530.69 205.63 530.69 239.1 769.79 239.1 769.79 205.63 564.16 205.63"/><polygon class="cls-1" points="335.22 434.57 335.23 640.2 500.83 640.2 500.83 401.09 398.56 401.09 398.56 430.95 467.36 430.95 467.36 606.72 368.7 606.72 368.7 434.57 368.7 401.09 129.59 401.09 129.59 434.57 335.22 434.57"/><polygon class="cls-1" points="335.22 205.63 129.59 205.63 129.6 371.24 368.7 371.24 368.7 268.96 338.84 268.96 338.84 337.76 163.07 337.76 163.07 239.1 335.22 239.1 368.7 239.1 368.7 0 335.22 0 335.22 205.63"/><polygon class="cls-1" points="564.16 434.57 769.79 434.57 769.79 268.96 530.69 268.96 530.69 371.24 560.55 371.24 560.55 302.44 736.32 302.44 736.32 401.09 564.16 401.09 530.69 401.09 530.69 640.2 564.16 640.2 564.16 434.57"/><path class="cls-1" d="M651.31,961.26c.53.67.66,1.2.4,1.6a1.57,1.57,0,0,1-1.4.6h-25.6a5.67,5.67,0,0,1-4.6-2.2l-5.2-6.2a57.2,57.2,0,0,1-15.9,7,67.13,67.13,0,0,1-17.3,2.2,69.54,69.54,0,0,1-27.8-5.6,72.4,72.4,0,0,1,0-133.2,71.8,71.8,0,0,1,55.6,0,71.32,71.32,0,0,1,43.6,66.6,69.24,69.24,0,0,1-5.1,26.6,71.77,71.77,0,0,1-14.1,22Zm-69.6-19.4a29.23,29.23,0,0,0,17.8-5.2l-16-18.8q-1.8-2,.4-3.8l14-11.8a2.55,2.55,0,0,1,3.8.2l17.4,20.6A43.79,43.79,0,0,0,627,909a45.7,45.7,0,0,0,2.3-16.9,59.3,59.3,0,0,0-4-20.7,47.16,47.16,0,0,0-10-15.2,47.9,47.9,0,0,0-52.2-10.2,47.93,47.93,0,0,0-15.1,10.2,47.37,47.37,0,0,0-10.2,15.2q-3.7,8.7-3.7,20.7t3.7,20.7a46.29,46.29,0,0,0,10.2,15.1,47.21,47.21,0,0,0,15.1,10A53.33,53.33,0,0,0,581.71,941.86Z" transform="translate(-510.31 -115.74)"/><path class="cls-1" d="M700.1,820.66a2.3,2.3,0,0,1,2.6,2.6v100.6a17.76,17.76,0,0,0,18,18,17.13,17.13,0,0,0,12.6-5.2,17.38,17.38,0,0,0,5.2-12.8V823.26c0-1.73.94-2.6,2.8-2.6h18.2c1.87,0,2.8.87,2.8,2.6v99.2a40.26,40.26,0,0,1-3.3,16.2,43.35,43.35,0,0,1-8.9,13.3,41.35,41.35,0,0,1-13.2,9,41.41,41.41,0,0,1-32.4,0,42.41,42.41,0,0,1-22.3-22.3,40.26,40.26,0,0,1-3.3-16.2v-99.2a2.36,2.36,0,0,1,.9-1.8,2.86,2.86,0,0,1,1.9-.8Z" transform="translate(-510.31 -115.74)"/><path class="cls-1" d="M813.3,963.46H794.9a2.56,2.56,0,0,1-2-.9,2.84,2.84,0,0,1-.8-1.9v-99.2a40.26,40.26,0,0,1,3.3-16.2,41.35,41.35,0,0,1,9-13.2,43.53,43.53,0,0,1,13.3-8.9,41.41,41.41,0,0,1,32.4,0,41.68,41.68,0,0,1,22.1,22.1,40.26,40.26,0,0,1,3.3,16.2v99.2a2.84,2.84,0,0,1-.8,1.9,2.56,2.56,0,0,1-2,.9H854.3a2.37,2.37,0,0,1-1.8-.9,2.84,2.84,0,0,1-.8-1.9v-46.2H815.9v46.2a2.84,2.84,0,0,1-.8,1.9A2.36,2.36,0,0,1,813.3,963.46Zm38.4-71.4v-32a17.75,17.75,0,0,0-17.8-17.8,17.38,17.38,0,0,0-12.8,5.2,17.16,17.16,0,0,0-5.2,12.6v32Z" transform="translate(-510.31 -115.74)"/><path class="cls-1" d="M908.9,820.66h18.4a2.36,2.36,0,0,1,1.8.9,2.84,2.84,0,0,1,.8,1.9v117.6h33a2.47,2.47,0,0,1,2.8,2.8v17c0,1.73-.93,2.6-2.8,2.6h-54a2.84,2.84,0,0,1-1.9-.8,2.36,2.36,0,0,1-.9-1.8V823.46a3.13,3.13,0,0,1,2.8-2.8Z" transform="translate(-510.31 -115.74)"/><path class="cls-1" d="M990.1,963.46c-1.87,0-2.8-.87-2.8-2.6V823.46c0-1.73.93-2.6,2.8-2.6h18.2c1.86,0,2.8.87,2.8,2.6v137.4c0,1.73-.94,2.6-2.8,2.6Z" transform="translate(-510.31 -115.74)"/><path class="cls-1" d="M1107.5,823.26a3.29,3.29,0,0,1,3.4-2.6h18.6a2.2,2.2,0,0,1,1.7.8,1.65,1.65,0,0,1,.3,1.8l-36.4,137.4a3.35,3.35,0,0,1-3.4,2.8h-21.2a3.2,3.2,0,0,1-2-.8,4.14,4.14,0,0,1-1.4-2l-36.4-137.4a1.62,1.62,0,0,1,.3-1.8,2.4,2.4,0,0,1,1.9-.8h18.4a3.3,3.3,0,0,1,3.4,2.6l26.4,109.6Z" transform="translate(-510.31 -115.74)"/><path class="cls-1" d="M1153.9,963.46c-1.87,0-2.8-.87-2.8-2.6V823.46c0-1.73.93-2.6,2.8-2.6h18.2c1.86,0,2.8.87,2.8,2.6v137.4c0,1.73-.94,2.6-2.8,2.6Z" transform="translate(-510.31 -115.74)"/><path class="cls-1" d="M1230.3,820.66a69.61,69.61,0,0,1,27.8,5.6,71.61,71.61,0,0,1,38,38,71.8,71.8,0,0,1,0,55.6,71.61,71.61,0,0,1-38,38,69.61,69.61,0,0,1-27.8,5.6h-21a2.56,2.56,0,0,1-2-.9,2.79,2.79,0,0,1-.8-1.9V823.46a2.47,2.47,0,0,1,2.8-2.8Zm0,120.4a45.78,45.78,0,0,0,18.5-3.8,49.88,49.88,0,0,0,15.2-10.2,46.61,46.61,0,0,0,10.2-15.1,55.36,55.36,0,0,0,0-39.8,47.39,47.39,0,0,0-25.4-25.4,46.73,46.73,0,0,0-18.5-3.7Z" transform="translate(-510.31 -115.74)"/><path class="cls-1" d="M1347.49,963.46h-18.4a2.56,2.56,0,0,1-2-.9,2.84,2.84,0,0,1-.8-1.9v-99.2a40.26,40.26,0,0,1,3.3-16.2,41.35,41.35,0,0,1,9-13.2,43.65,43.65,0,0,1,13.3-8.9,41.41,41.41,0,0,1,32.4,0,41.68,41.68,0,0,1,22.1,22.1,40.26,40.26,0,0,1,3.3,16.2v99.2a2.84,2.84,0,0,1-.8,1.9,2.56,2.56,0,0,1-2,.9h-18.4a2.39,2.39,0,0,1-1.8-.9,2.84,2.84,0,0,1-.8-1.9v-46.2h-35.8v46.2a2.79,2.79,0,0,1-.8,1.9A2.36,2.36,0,0,1,1347.49,963.46Zm38.4-71.4v-32a17.75,17.75,0,0,0-17.8-17.8,17.4,17.4,0,0,0-12.8,5.2,17.2,17.2,0,0,0-5.2,12.6v32Z" transform="translate(-510.31 -115.74)"/></svg>